<svg width="179" height="41" viewBox="0 0 179 41" fill="none" xmlns="http://www.w3.org/2000/svg">
<path d="M34.2247 40.7872L34.0093 39.8601C34.1591 39.8219 48.9486 35.9989 52.7888 17.6677C56.7882 -1.41848 73.657 1.09513 73.8256 1.1238L73.6757 2.06999C73.0107 1.96486 57.5094 -0.328931 53.6973 17.8685C49.726 36.8113 34.3746 40.7585 34.2247 40.7968V40.7872Z" fill="#DBDEF0"/>
<path d="M77.9653 14.2079C76.7852 13.2331 75.708 12.5927 74.7527 12.2678C73.7879 11.9524 72.6172 11.7995 71.2403 11.809C69.6949 11.8186 68.3086 12.1531 67.091 12.803C65.864 13.4625 64.9087 14.3417 64.2156 15.4695C63.5318 16.5973 63.1759 17.8302 63.1665 19.1874C63.2696 20.5063 63.6348 21.7201 64.2811 22.8288C64.918 23.9374 65.8078 24.8263 66.9599 25.4953C68.1026 26.1739 69.4326 26.5179 70.9593 26.5466C72.5048 26.4893 73.9191 26.0878 75.1835 25.3137C76.448 24.5395 77.3846 23.4309 77.9934 21.9781L70.388 22.045L70.313 16.0239L86.0953 15.8805C86.189 16.5208 86.2358 17.1899 86.2452 17.8876C86.2639 19.4741 86.0578 21.0224 85.627 22.542C85.2055 24.0521 84.5311 25.4666 83.6039 26.7855C82.6766 28.1045 81.4777 29.2514 80.0072 30.2262C78.546 31.2011 76.8039 31.9274 74.7901 32.4149C73.4601 32.7303 72.0926 32.8927 70.6877 32.9023C68.4679 32.9214 66.4166 32.5582 64.5246 31.8128C62.6233 31.0577 60.9842 30.0255 59.598 28.7257C58.2024 27.4163 57.1346 25.954 56.3853 24.3293C55.6266 22.7045 55.2426 21.0702 55.2239 19.4263C55.2239 19.0249 55.2707 18.4132 55.3644 17.6008C55.7109 15.5364 56.3666 13.7301 57.35 12.1913C58.3241 10.6621 59.5137 9.4101 60.9186 8.43524C62.3236 7.46038 63.8596 6.74357 65.5456 6.2657C67.2315 5.78782 68.983 5.54889 70.7907 5.52977C72.383 5.51066 73.9378 5.67313 75.4739 5.98853C77.01 6.30393 78.4337 6.77224 79.7637 7.38392C81.0937 7.99559 82.227 8.7124 83.1543 9.52479L77.9841 14.1984L77.9653 14.2079Z" fill="#DBDEF0"/>
<path d="M35.8167 33.0457V27.1965C38.0834 27.1965 39.7881 27.0914 40.9401 26.8716C42.0922 26.6517 42.982 26.2599 43.6189 25.7151C44.2558 25.1512 44.8834 24.291 45.4734 23.125H35.8167V17.5913H45.4734C44.8646 16.4157 44.2277 15.5555 43.5908 15.0108C42.9445 14.466 42.0547 14.0933 40.9214 13.8925C39.7881 13.6918 38.0928 13.5867 35.8167 13.5867V7.73755H40.4812C42.0266 7.73755 43.544 8.02427 45.0426 8.61683C46.5318 9.19984 47.8899 10.0409 49.0982 11.14C50.3065 12.2391 51.2712 13.558 51.9924 15.0968C52.7136 16.6355 53.0976 18.3272 53.1445 20.1813C53.1445 21.8348 52.8354 23.45 52.2359 25.0079C51.6271 26.5657 50.7748 27.9516 49.6789 29.1653C48.5737 30.3696 47.2624 31.3158 45.7357 32.023C44.209 32.7303 42.5605 33.0743 40.7903 33.0743H35.8074L35.8167 33.0457Z" fill="#DBDEF0"/>
<path fill-rule="evenodd" clip-rule="evenodd" d="M22.067 12.4972L24.624 24.186L27.5837 12.4972H32.5011L28.689 25.6005C28.3143 26.8812 27.846 27.8082 27.2746 28.3912C26.7033 28.9742 25.8322 29.2801 24.6802 29.2992C23.5656 29.2992 22.6945 29.0411 22.067 28.5059C21.4394 27.9803 20.9524 27.0627 20.5964 25.7438L17.0747 12.4972H22.0763H22.067Z" fill="#DBDEF0"/>
<path fill-rule="evenodd" clip-rule="evenodd" d="M13.1784 18.0118V29.0125H8.49527V23.2684H5.5636V19.541H8.49527V18.0501C8.49527 17.5722 8.4016 17.1803 8.23301 16.8554C8.05505 16.54 7.83026 16.3106 7.5399 16.1481C7.24954 15.9952 6.94045 15.9188 6.61263 15.9188C5.30134 15.9761 4.6457 16.7789 4.6457 18.3272V29.0029H0V18.0405C0 17.0943 0.187327 16.2342 0.543247 15.4791C0.908534 14.7241 1.40495 14.0837 2.04186 13.5676C2.67877 13.0515 3.39061 12.6597 4.16802 12.4016C4.94542 12.1436 5.7603 12.0098 6.60327 12.0098C7.44624 12.0098 8.26111 12.134 9.04788 12.3921C9.83465 12.6501 10.5278 13.0324 11.1553 13.539C11.7735 14.0455 12.2605 14.6763 12.6258 15.4409C12.9911 16.1959 13.1691 17.0465 13.1691 18.0023L13.1784 18.0118Z" fill="#DBDEF0"/>
<path fill-rule="evenodd" clip-rule="evenodd" d="M168.603 18.1074V29.108H163.92V23.364H160.989V19.6366H163.92V18.1457C163.92 17.6678 163.836 17.2759 163.658 16.951C163.48 16.6356 163.255 16.4062 162.965 16.2437C162.674 16.0908 162.365 16.0143 162.038 16.0143C160.726 16.0717 160.071 16.8745 160.071 18.4228V29.0985H155.416V18.1361C155.416 17.1899 155.603 16.3297 155.959 15.5747C156.324 14.8197 156.82 14.1793 157.457 13.6632C158.094 13.1471 158.806 12.7553 159.584 12.4972C160.361 12.2392 161.185 12.1053 162.028 12.1053C162.871 12.1053 163.686 12.2296 164.473 12.4876C165.26 12.7457 165.953 13.128 166.58 13.6345C167.198 14.1411 167.685 14.7719 168.051 15.5269C168.416 16.282 168.594 17.1421 168.594 18.0883" fill="#DBDEF0"/>
<path fill-rule="evenodd" clip-rule="evenodd" d="M152.784 16.5495H150.686C149.908 16.5495 149.168 16.7025 148.475 17.0083C147.782 17.3141 147.22 17.7729 146.789 18.375C146.358 18.9867 146.134 19.7226 146.115 20.6019C146.115 22.2267 146.574 23.3927 147.482 24.0999C148.4 24.8072 149.562 25.1512 150.957 25.1512H152.784V29.108H150.152C148.962 29.108 147.838 28.9264 146.761 28.5537C145.693 28.1905 144.738 27.6362 143.895 26.9098C143.052 26.1834 142.406 25.2755 141.928 24.205C141.46 23.1346 141.216 21.9113 141.216 20.5445C141.244 19.283 141.535 18.1456 142.069 17.1421C142.612 16.1386 143.314 15.2975 144.176 14.6285C145.038 13.9499 145.974 13.4434 146.967 13.0993C147.96 12.7552 148.934 12.5832 149.89 12.5832H152.793V16.54L152.784 16.5495Z" fill="#DBDEF0"/>
<path d="M138.978 12.5928H134.294V29.108H138.978V12.5928Z" fill="#DBDEF0"/>
<path fill-rule="evenodd" clip-rule="evenodd" d="M132.253 12.5927V16.5495H128.562C127.85 16.5495 127.41 16.6833 127.223 16.9414C127.036 17.1994 126.942 17.5531 126.942 18.0118V19.3977H132.243V23.2206H126.942V29.108H122.259V18.1456C122.259 17.0083 122.465 16.0239 122.877 15.1924C123.289 14.3704 123.935 13.7301 124.835 13.2713C125.734 12.8126 126.886 12.5832 128.291 12.5832H132.253V12.5927Z" fill="#DBDEF0"/>
<path fill-rule="evenodd" clip-rule="evenodd" d="M112.771 8.02429H118.334L113.764 11.5319H110.026L112.771 8.02429Z" fill="#DBDEF0"/>
<path fill-rule="evenodd" clip-rule="evenodd" d="M119.327 18.1074V29.108H114.644V23.364H111.712V19.6366H114.644V18.1457C114.644 17.6678 114.55 17.2759 114.382 16.951C114.204 16.6356 113.979 16.4062 113.689 16.2437C113.398 16.0908 113.089 16.0143 112.761 16.0143C111.45 16.0717 110.794 16.8745 110.794 18.4228V29.0985H106.139V18.1361C106.139 17.1899 106.327 16.3297 106.683 15.5747C107.048 14.8197 107.544 14.1793 108.181 13.6632C108.818 13.1471 109.53 12.7553 110.307 12.4972C111.085 12.2392 111.9 12.1053 112.743 12.1053C113.586 12.1053 114.401 12.2296 115.187 12.4876C115.974 12.7457 116.667 13.128 117.295 13.6345C117.913 14.1411 118.4 14.7719 118.765 15.5269C119.131 16.282 119.308 17.1421 119.308 18.0883L119.327 18.1074Z" fill="#DBDEF0"/>
<path fill-rule="evenodd" clip-rule="evenodd" d="M99.3582 20.6497C100.819 20.8695 101.756 21.2327 102.187 21.7297C102.608 22.2171 102.824 22.7619 102.824 23.364V29.108H98.1031V24.0426C98.1031 23.6794 97.9345 23.3831 97.5973 23.1537C97.2601 22.9243 96.4827 22.7905 95.2651 22.7523V19.0727C96.1174 19.0727 96.7356 18.9293 97.129 18.6522C97.5224 18.3654 97.719 18.0118 97.719 17.5722C97.719 17.1612 97.5598 16.8267 97.2507 16.5495C96.9416 16.2819 96.5576 16.1386 96.108 16.1386C95.6023 16.1386 95.1901 16.3393 94.8811 16.7216C94.572 17.1134 94.4127 17.5148 94.4127 17.9258V29.1176H89.5422V18.5853C89.5422 17.3141 89.7764 16.215 90.2541 15.2784C90.7318 14.3418 91.4717 13.6154 92.4926 13.0993C93.5136 12.5832 94.8061 12.3251 96.3703 12.3251C97.4381 12.3251 98.4122 12.4972 99.302 12.8317C100.192 13.1662 100.913 13.6536 101.475 14.3035C102.028 14.9439 102.355 15.718 102.449 16.6164C102.487 17.0083 102.505 17.2377 102.505 17.3237C102.505 19.283 101.456 20.4012 99.3582 20.6783V20.6497Z" fill="#DBDEF0"/>
<path d="M175.441 15.4982C173.474 15.4982 171.882 13.8639 171.882 11.8664C171.882 9.86888 173.483 8.23456 175.441 8.23456C177.398 8.23456 179 9.86888 179 11.8664C179 13.8639 177.398 15.4982 175.441 15.4982ZM175.441 8.71243C173.736 8.71243 172.35 10.1269 172.35 11.8664C172.35 13.6058 173.736 15.0203 175.441 15.0203C177.145 15.0203 178.532 13.6058 178.532 11.8664C178.532 10.1269 177.145 8.71243 175.441 8.71243Z" fill="#DBDEF0"/>
<path fill-rule="evenodd" clip-rule="evenodd" d="M174.036 9.87842H175.684C175.731 9.87842 175.787 9.87842 175.834 9.87842C175.89 9.87842 175.918 9.87842 175.918 9.87842C176.302 9.87842 176.602 9.97399 176.818 10.1651C177.033 10.3563 177.145 10.6143 177.145 10.9489C177.145 11.1782 177.099 11.3789 177.005 11.5223C176.911 11.6752 176.761 11.7995 176.565 11.8855C176.724 11.9333 176.836 12.0002 176.911 12.1053C176.977 12.2009 177.024 12.3825 177.042 12.631L177.089 13.2904C177.089 13.4242 177.117 13.5294 177.145 13.5963C177.173 13.6632 177.22 13.7205 177.286 13.7492V13.8639H176.658C176.602 13.7779 176.574 13.5963 176.546 13.3287V13.3095L176.508 12.7934C176.49 12.5258 176.424 12.3538 176.321 12.2678C176.209 12.1913 175.984 12.1531 175.637 12.1531H174.56V13.8639H174.026V9.87842H174.036ZM174.57 10.3467V11.6943H175.591C175.956 11.6943 176.209 11.637 176.368 11.5319C176.518 11.4172 176.602 11.2451 176.602 10.9871C176.602 10.7673 176.527 10.5952 176.387 10.4997C176.246 10.3945 176.021 10.3467 175.703 10.3467H174.57Z" fill="#DBDEF0"/>
</svg>
