<svg width="50" height="50" viewBox="0 0 50 50" fill="none" xmlns="http://www.w3.org/2000/svg">
<path d="M25.05 36.425C18.775 36.425 13.675 31.3 13.675 25.025C13.675 18.75 18.775 13.625 25.05 13.625C31.325 13.625 36.425 18.75 36.425 25.025C36.425 31.3 31.325 36.425 25.05 36.425ZM25.05 15.025C19.55 15.025 15.075 19.5 15.075 25.025C15.075 30.55 19.55 35.025 25.05 35.025C30.55 35.025 35.025 30.55 35.025 25.025C35.025 19.5 30.55 15.025 25.05 15.025Z" fill="#DBDEF0"/>
<path d="M25.75 2.54999H24.35V47.5H25.75V2.54999Z" fill="#DBDEF0"/>
<path d="M47.5 24.325H2.625V25.725H47.5V24.325Z" fill="#DBDEF0"/>
<path d="M24.95 36.375C18.675 36.375 13.575 31.25 13.575 24.975C13.575 18.7 18.675 13.575 24.95 13.575C31.225 13.575 36.325 18.7 36.325 24.975C36.325 31.25 31.225 36.375 24.95 36.375ZM24.95 14.975C19.45 14.975 14.975 19.45 14.975 24.975C14.975 30.5 19.45 34.975 24.95 34.975C30.45 34.975 34.925 30.5 34.925 24.975C34.925 19.45 30.45 14.975 24.95 14.975Z" fill="#DBDEF0"/>
<path d="M25.625 2.5H24.225V47.45H25.625V2.5Z" fill="#DBDEF0"/>
<path d="M47.375 24.275H2.5V25.675H47.375V24.275Z" fill="#DBDEF0"/>
</svg>
